<?xml version="1.0" encoding="UTF-8" standalone="no"?><!DOCTYPE svg PUBLIC "-//W3C//DTD SVG 1.1//EN" "http://www.w3.org/Graphics/SVG/1.1/DTD/svg11.dtd"><!-- Generated by graphviz version 2.40.1 (20161225.0304)
 --><!-- Title: %0 Pages: 1 --><svg xmlns="http://www.w3.org/2000/svg" xmlns:xlink="http://www.w3.org/1999/xlink" width="1923pt" height="888pt" viewBox="0.00 0.00 1923.00 888.31">
<g id="graph0" class="graph" transform="scale(1 1) rotate(0) translate(4 884.3053)">
<title>%0</title>
<polygon fill="#ffffff" stroke="transparent" points="-4,4 -4,-884.3053 1919,-884.3053 1919,4 -4,4"/>
<g id="clust1" class="cluster">
<title>cluster_gen0</title>
<polygon fill="none" stroke="#000000" points="1549,-747.8909 1549,-872.3053 1853,-872.3053 1853,-747.8909 1549,-747.8909"/>
</g>
<g id="clust2" class="cluster">
<title>cluster_gen1</title>
<polygon fill="none" stroke="#000000" points="1387,-593.2283 1387,-726.8909 1907,-726.8909 1907,-593.2283 1387,-593.2283"/>
</g>
<g id="clust3" class="cluster">
<title>cluster_gen2</title>
<polygon fill="none" stroke="#000000" points="1193,-473.0283 1193,-572.2283 1588,-572.2283 1588,-473.0283 1193,-473.0283"/>
</g>
<g id="clust4" class="cluster">
<title>cluster_gen3</title>
<polygon fill="none" stroke="#000000" points="693,-347.5088 693,-436.2283 1657,-436.2283 1657,-347.5088 693,-347.5088"/>
</g>
<g id="clust5" class="cluster">
<title>cluster_gen4</title>
<polygon fill="none" stroke="#000000" points="21,-226.7763 21,-310.7088 1326,-310.7088 1326,-226.7763 21,-226.7763"/>
</g>
<g id="clust6" class="cluster">
<title>cluster_gen5</title>
<polygon fill="none" stroke="#000000" points="8,-108.6785 8,-189.9763 1386,-189.9763 1386,-108.6785 8,-108.6785"/>
</g>
<g id="clust7" class="cluster">
<title>cluster_gen6</title>
<polygon fill="none" stroke="#000000" points="421,-8 421,-87.6785 879,-87.6785 879,-8 421,-8"/>
</g>
<!-- 0 -->
<g id="node1" class="node">
<title>0</title>
<ellipse fill="#add8e6" stroke="#000000" cx="1791" cy="-810.0981" rx="54.4153" ry="54.4153"/>
<text text-anchor="middle" x="1791" y="-814.2981" font-family="Times,serif" font-size="14.00" fill="#000000">leo</text>
<text text-anchor="middle" x="1791" y="-797.4981" font-family="Times,serif" font-size="14.00" fill="#000000">1700-1775</text>
</g>
<!-- 2 -->
<g id="node3" class="node">
<title>2</title>
<polygon fill="#add8e6" stroke="#000000" points="1791,-718.7226 1682.671,-630.7281 1899.329,-630.7281 1791,-718.7226"/>
<text text-anchor="middle" x="1791" y="-664.2596" font-family="Times,serif" font-size="14.00" fill="#000000">Victor</text>
<text text-anchor="middle" x="1791" y="-647.4596" font-family="Times,serif" font-size="14.00" fill="#000000">1728-1792</text>
</g>
<!-- 0&#45;&gt;2 -->
<g id="edge1" class="edge">
<title>0-&gt;2</title>
<path fill="none" stroke="#000000" d="M1791,-755.5063C1791,-746.9547 1791,-738.0196 1791,-729.1939"/>
<polygon fill="#000000" stroke="#000000" points="1794.5001,-728.913 1791,-718.913 1787.5001,-728.9131 1794.5001,-728.913"/>
</g>
<!-- 1 -->
<g id="node2" class="node">
<title>1</title>
<ellipse fill="#ffc0cb" stroke="#000000" cx="1611" cy="-810.0981" rx="54.4153" ry="54.4153"/>
<text text-anchor="middle" x="1611" y="-814.2981" font-family="Times,serif" font-size="14.00" fill="#000000">maria</text>
<text text-anchor="middle" x="1611" y="-797.4981" font-family="Times,serif" font-size="14.00" fill="#000000">1700-1775</text>
</g>
<!-- 1&#45;&gt;0 -->
<g id="edge18" class="edge">
<title>1-&gt;0</title>
<path fill="none" stroke="#ff0000" d="M1665.4944,-810.0981C1688.0517,-810.0981 1714.1529,-810.0981 1736.6908,-810.0981"/>
<text text-anchor="middle" x="1701" y="-817.2981" font-family="Times,serif" font-size="14.00" fill="#000000">married</text>
</g>
<!-- 3 -->
<g id="node4" class="node">
<title>3</title>
<polygon fill="#ffc0cb" stroke="#000000" points="1503,-718.7226 1394.671,-630.7281 1611.329,-630.7281 1503,-718.7226"/>
<text text-anchor="middle" x="1503" y="-664.2596" font-family="Times,serif" font-size="14.00" fill="#000000">Elizabeth</text>
<text text-anchor="middle" x="1503" y="-647.4596" font-family="Times,serif" font-size="14.00" fill="#000000">1721-1797</text>
</g>
<!-- 3&#45;&gt;2 -->
<g id="edge19" class="edge">
<title>3-&gt;2</title>
<path fill="none" stroke="#ff0000" d="M1575.3028,-660.0596C1619.1248,-660.0596 1674.8401,-660.0596 1718.6674,-660.0596"/>
<text text-anchor="middle" x="1647" y="-667.2596" font-family="Times,serif" font-size="14.00" fill="#000000">married</text>
</g>
<!-- 4 -->
<g id="node5" class="node">
<title>4</title>
<polygon fill="#ffc0cb" stroke="#000000" points="1503,-564.3285 1426.1785,-522.6283 1503,-480.9281 1579.8215,-522.6283 1503,-564.3285"/>
<text text-anchor="middle" x="1503" y="-526.8283" font-family="Times,serif" font-size="14.00" fill="#000000">Annie</text>
<text text-anchor="middle" x="1503" y="-510.0283" font-family="Times,serif" font-size="14.00" fill="#000000">1752-1821</text>
</g>
<!-- 3&#45;&gt;4 -->
<g id="edge2" class="edge">
<title>3-&gt;4</title>
<path fill="none" stroke="#000000" d="M1503,-630.5771C1503,-614.1976 1503,-593.3454 1503,-574.3438"/>
<polygon fill="#000000" stroke="#000000" points="1506.5001,-574.3146 1503,-564.3147 1499.5001,-574.3147 1506.5001,-574.3146"/>
</g>
<!-- 5 -->
<g id="node6" class="node">
<title>5</title>
<polygon fill="#add8e6" stroke="#000000" points="1278,-564.3285 1201.1785,-522.6283 1278,-480.9281 1354.8215,-522.6283 1278,-564.3285"/>
<text text-anchor="middle" x="1278" y="-526.8283" font-family="Times,serif" font-size="14.00" fill="#000000">Keith</text>
<text text-anchor="middle" x="1278" y="-510.0283" font-family="Times,serif" font-size="14.00" fill="#000000">1749-1812</text>
</g>
<!-- 5&#45;&gt;4 -->
<g id="edge20" class="edge">
<title>5-&gt;4</title>
<path fill="none" stroke="#ff0000" d="M1354.8029,-522.6283C1377.8454,-522.6283 1403.1167,-522.6283 1426.1615,-522.6283"/>
<text text-anchor="middle" x="1390.5" y="-529.8283" font-family="Times,serif" font-size="14.00" fill="#000000">married</text>
</g>
<!-- 6 -->
<g id="node7" class="node">
<title>6</title>
<polygon fill="#ffc0cb" stroke="#000000" points="835.0076,-403.0612 768,-428.0886 700.9924,-403.0612 726.587,-362.566 809.413,-362.566 835.0076,-403.0612"/>
<text text-anchor="middle" x="768" y="-396.0686" font-family="Times,serif" font-size="14.00" fill="#000000">Rita</text>
<text text-anchor="middle" x="768" y="-379.2686" font-family="Times,serif" font-size="14.00" fill="#000000">1776-1854</text>
</g>
<!-- 5&#45;&gt;6 -->
<g id="edge3" class="edge">
<title>5-&gt;6</title>
<path fill="none" stroke="#000000" d="M1212.0888,-516.5734C1125.3149,-507.0299 969.1161,-484.3771 844,-436.2283 833.0824,-432.0269 821.8967,-426.3702 811.5799,-420.5048"/>
<polygon fill="#000000" stroke="#000000" points="813.1611,-417.3745 802.7659,-415.3278 809.6159,-423.4103 813.1611,-417.3745"/>
</g>
<!-- 8 -->
<g id="node9" class="node">
<title>8</title>
<polygon fill="#ffc0cb" stroke="#000000" points="1345.0076,-403.0612 1278,-428.0886 1210.9924,-403.0612 1236.587,-362.566 1319.413,-362.566 1345.0076,-403.0612"/>
<text text-anchor="middle" x="1278" y="-396.0686" font-family="Times,serif" font-size="14.00" fill="#000000">Mildred</text>
<text text-anchor="middle" x="1278" y="-379.2686" font-family="Times,serif" font-size="14.00" fill="#000000">1782-1852</text>
</g>
<!-- 5&#45;&gt;8 -->
<g id="edge4" class="edge">
<title>5-&gt;8</title>
<path fill="none" stroke="#000000" d="M1278,-480.8956C1278,-467.4351 1278,-452.4291 1278,-438.6302"/>
<polygon fill="#000000" stroke="#000000" points="1281.5001,-438.3589 1278,-428.359 1274.5001,-438.359 1281.5001,-438.3589"/>
</g>
<!-- 32 -->
<g id="node12" class="node">
<title>32</title>
<polygon fill="#add8e6" stroke="#000000" points="1649.0076,-403.0612 1582,-428.0886 1514.9924,-403.0612 1540.587,-362.566 1623.413,-362.566 1649.0076,-403.0612"/>
<text text-anchor="middle" x="1582" y="-396.0686" font-family="Times,serif" font-size="14.00" fill="#000000">Randy</text>
<text text-anchor="middle" x="1582" y="-379.2686" font-family="Times,serif" font-size="14.00" fill="#000000">1790-1864</text>
</g>
<!-- 5&#45;&gt;32 -->
<g id="edge5" class="edge">
<title>5-&gt;32</title>
<path fill="none" stroke="#000000" d="M1324.4295,-506.0677C1380.9834,-485.7159 1473.0503,-451.9534 1506,-436.2283 1516.1341,-431.3918 1526.7138,-425.6759 1536.6479,-419.9842"/>
<polygon fill="#000000" stroke="#000000" points="1538.6817,-422.8499 1545.5582,-414.7899 1535.1563,-416.8025 1538.6817,-422.8499"/>
</g>
<!-- 7 -->
<g id="node8" class="node">
<title>7</title>
<polygon fill="#add8e6" stroke="#000000" points="1497.0076,-403.0612 1430,-428.0886 1362.9924,-403.0612 1388.587,-362.566 1471.413,-362.566 1497.0076,-403.0612"/>
<text text-anchor="middle" x="1430" y="-396.0686" font-family="Times,serif" font-size="14.00" fill="#000000">Sean</text>
<text text-anchor="middle" x="1430" y="-379.2686" font-family="Times,serif" font-size="14.00" fill="#000000">1789-1844</text>
</g>
<!-- 7&#45;&gt;6 -->
<g id="edge21" class="edge">
<title>7-&gt;6</title>
<path fill="none" stroke="#ff0000" d="M1396.7957,-415.8875C1384.0346,-423.8379 1368.9356,-431.7831 1354,-436.2283 1221.5905,-475.6369 1105.3063,-461.1946 976.2342,-453.0283 917.1093,-449.2875 900.0972,-455.2772 844,-436.2283 829.3891,-431.2669 814.4773,-423.3155 801.7763,-415.5057"/>
<text text-anchor="middle" x="998" y="-450.4283" font-family="Times,serif" font-size="14.00" fill="#000000">married</text>
</g>
<!-- 9 -->
<g id="node10" class="node">
<title>9</title>
<polygon fill="#add8e6" stroke="#000000" points="987.0076,-403.0612 920,-428.0886 852.9924,-403.0612 878.587,-362.566 961.413,-362.566 987.0076,-403.0612"/>
<text text-anchor="middle" x="920" y="-396.0686" font-family="Times,serif" font-size="14.00" fill="#000000">Clarence</text>
<text text-anchor="middle" x="920" y="-379.2686" font-family="Times,serif" font-size="14.00" fill="#000000">1778-1835</text>
</g>
<!-- 9&#45;&gt;8 -->
<g id="edge22" class="edge">
<title>9-&gt;8</title>
<path fill="none" stroke="#ff0000" d="M954.7438,-415.3854C967.2964,-422.994 981.8648,-430.8472 996,-436.2283 1049.1144,-456.4484 1066.9306,-463.6308 1122.7658,-453.0283 1163.1763,-445.3548 1206.5186,-427.3766 1237.1068,-412.8864"/>
<text text-anchor="middle" x="1101" y="-450.4283" font-family="Times,serif" font-size="14.00" fill="#000000">married</text>
</g>
<!-- 10 -->
<g id="node13" class="node">
<title>10</title>
<polygon fill="#add8e6" stroke="#000000" points="494.6864,-268.7426 463.3432,-302.6751 400.6568,-302.6751 369.3136,-268.7426 400.6568,-234.81 463.3432,-234.81 494.6864,-268.7426"/>
<text text-anchor="middle" x="432" y="-272.9426" font-family="Times,serif" font-size="14.00" fill="#000000">Vincent</text>
<text text-anchor="middle" x="432" y="-256.1426" font-family="Times,serif" font-size="14.00" fill="#000000">1821-1913</text>
</g>
<!-- 9&#45;&gt;10 -->
<g id="edge6" class="edge">
<title>9-&gt;10</title>
<path fill="none" stroke="#000000" d="M878.089,-363.2147C867.3851,-357.094 855.6096,-351.3293 844,-347.5088 699.2033,-299.8591 647.6652,-358.7563 503,-310.7088 494.9911,-308.0489 486.9067,-304.3893 479.206,-300.3314"/>
<polygon fill="#000000" stroke="#000000" points="480.811,-297.2192 470.3698,-295.4209 477.4106,-303.3379 480.811,-297.2192"/>
</g>
<!-- 15 -->
<g id="node11" class="node">
<title>15</title>
<polygon fill="#add8e6" stroke="#000000" points="1139.0076,-403.0612 1072,-428.0886 1004.9924,-403.0612 1030.587,-362.566 1113.413,-362.566 1139.0076,-403.0612"/>
<text text-anchor="middle" x="1072" y="-396.0686" font-family="Times,serif" font-size="14.00" fill="#000000">Terry</text>
<text text-anchor="middle" x="1072" y="-379.2686" font-family="Times,serif" font-size="14.00" fill="#000000">1813-1910</text>
</g>
<!-- 15&#45;&gt;8 -->
<g id="edge25" class="edge">
<title>15-&gt;8</title>
<path fill="none" stroke="#ff0000" d="M1132.1375,-391.8686C1159.0954,-391.8686 1190.8211,-391.8686 1217.7878,-391.8686"/>
<text text-anchor="middle" x="1175" y="-399.0686" font-family="Times,serif" font-size="14.00" fill="#000000">married</text>
</g>
<!-- 16 -->
<g id="node16" class="node">
<title>16</title>
<polygon fill="#ffc0cb" stroke="#000000" points="834.6864,-268.7426 803.3432,-302.6751 740.6568,-302.6751 709.3136,-268.7426 740.6568,-234.81 803.3432,-234.81 834.6864,-268.7426"/>
<text text-anchor="middle" x="772" y="-272.9426" font-family="Times,serif" font-size="14.00" fill="#000000">Marjorie</text>
<text text-anchor="middle" x="772" y="-256.1426" font-family="Times,serif" font-size="14.00" fill="#000000">1849-1935</text>
</g>
<!-- 15&#45;&gt;16 -->
<g id="edge7" class="edge">
<title>15-&gt;16</title>
<path fill="none" stroke="#000000" d="M1074.0878,-362.3935C1073.4195,-347.6437 1069.7294,-330.8214 1058,-320.7088 1039.8875,-305.0931 865.9151,-317.5508 843,-310.7088 834.8151,-308.265 826.5893,-304.6812 818.7862,-300.6214"/>
<polygon fill="#000000" stroke="#000000" points="820.2924,-297.4549 809.8478,-295.6768 816.9039,-303.5801 820.2924,-297.4549"/>
</g>
<!-- 22 -->
<g id="node18" class="node">
<title>22</title>
<polygon fill="#ffc0cb" stroke="#000000" points="1317.6864,-268.7426 1286.3432,-302.6751 1223.6568,-302.6751 1192.3136,-268.7426 1223.6568,-234.81 1286.3432,-234.81 1317.6864,-268.7426"/>
<text text-anchor="middle" x="1255" y="-272.9426" font-family="Times,serif" font-size="14.00" fill="#000000">Ruth</text>
<text text-anchor="middle" x="1255" y="-256.1426" font-family="Times,serif" font-size="14.00" fill="#000000">1856-1948</text>
</g>
<!-- 15&#45;&gt;22 -->
<g id="edge8" class="edge">
<title>15-&gt;22</title>
<path fill="none" stroke="#000000" d="M1114.4438,-363.3115C1142.4089,-344.4961 1179.0537,-319.8408 1207.9149,-300.4224"/>
<polygon fill="#000000" stroke="#000000" points="1209.8753,-303.3219 1216.2184,-294.8356 1205.9677,-297.514 1209.8753,-303.3219"/>
</g>
<!-- 11 -->
<g id="node14" class="node">
<title>11</title>
<polygon fill="#ffc0cb" stroke="#000000" points="154.6864,-268.7426 123.3432,-302.6751 60.6568,-302.6751 29.3136,-268.7426 60.6568,-234.81 123.3432,-234.81 154.6864,-268.7426"/>
<text text-anchor="middle" x="92" y="-272.9426" font-family="Times,serif" font-size="14.00" fill="#000000">Deborah</text>
<text text-anchor="middle" x="92" y="-256.1426" font-family="Times,serif" font-size="14.00" fill="#000000">1814-1903</text>
</g>
<!-- 11&#45;&gt;10 -->
<g id="edge23" class="edge">
<title>11-&gt;10</title>
<path fill="none" stroke="#ff0000" d="M131.0386,-294.8231C141.1314,-300.7142 152.2037,-306.4715 163,-310.7088 213.4444,-330.5073 230.5374,-337.675 283.7658,-327.5088 320.7472,-320.4458 360.2714,-304.3018 389.1997,-290.7188"/>
<text text-anchor="middle" x="262" y="-324.9088" font-family="Times,serif" font-size="14.00" fill="#000000">married</text>
</g>
<!-- 12 -->
<g id="node21" class="node">
<title>12</title>
<polygon fill="#add8e6" stroke="#000000" points="136.3314,-142.0291 124.382,-169.7769 76,-182.1259 27.618,-169.7769 15.6686,-142.0291 49.15,-119.777 102.85,-119.777 136.3314,-142.0291"/>
<text text-anchor="middle" x="76" y="-153.5274" font-family="Times,serif" font-size="14.00" fill="#000000">Steven</text>
<text text-anchor="middle" x="76" y="-136.7274" font-family="Times,serif" font-size="14.00" fill="#000000">1858-1922</text>
</g>
<!-- 11&#45;&gt;12 -->
<g id="edge9" class="edge">
<title>11-&gt;12</title>
<path fill="none" stroke="#000000" d="M87.415,-234.523C85.6019,-220.991 83.5007,-205.3088 81.599,-191.1155"/>
<polygon fill="#000000" stroke="#000000" points="85.0536,-190.5423 80.2565,-181.0957 78.1156,-191.472 85.0536,-190.5423"/>
</g>
<!-- 13 -->
<g id="node15" class="node">
<title>13</title>
<polygon fill="#ffc0cb" stroke="#000000" points="297.6864,-268.7426 266.3432,-302.6751 203.6568,-302.6751 172.3136,-268.7426 203.6568,-234.81 266.3432,-234.81 297.6864,-268.7426"/>
<text text-anchor="middle" x="235" y="-272.9426" font-family="Times,serif" font-size="14.00" fill="#000000">Crystal</text>
<text text-anchor="middle" x="235" y="-256.1426" font-family="Times,serif" font-size="14.00" fill="#000000">1875-1932</text>
</g>
<!-- 13&#45;&gt;10 -->
<g id="edge24" class="edge">
<title>13-&gt;10</title>
<path fill="none" stroke="#ff0000" d="M297.6027,-268.7426C320.4737,-268.7426 346.3359,-268.7426 369.2222,-268.7426"/>
<text text-anchor="middle" x="333.5" y="-275.9426" font-family="Times,serif" font-size="14.00" fill="#000000">married</text>
</g>
<!-- 14 -->
<g id="node22" class="node">
<title>14</title>
<polygon fill="#add8e6" stroke="#000000" points="412.3314,-142.0291 400.382,-169.7769 352,-182.1259 303.618,-169.7769 291.6686,-142.0291 325.15,-119.777 378.85,-119.777 412.3314,-142.0291"/>
<text text-anchor="middle" x="352" y="-153.5274" font-family="Times,serif" font-size="14.00" fill="#000000">Jeremy</text>
<text text-anchor="middle" x="352" y="-136.7274" font-family="Times,serif" font-size="14.00" fill="#000000">1917-1924</text>
</g>
<!-- 13&#45;&gt;14 -->
<g id="edge10" class="edge">
<title>13-&gt;14</title>
<path fill="none" stroke="#000000" d="M267.2805,-235.7958C283.3522,-219.3923 302.7529,-199.5911 318.9314,-183.0787"/>
<polygon fill="#000000" stroke="#000000" points="321.616,-185.3398 326.1144,-175.7473 316.6159,-180.4408 321.616,-185.3398"/>
</g>
<!-- 17 -->
<g id="node17" class="node">
<title>17</title>
<polygon fill="#add8e6" stroke="#000000" points="637.6864,-268.7426 606.3432,-302.6751 543.6568,-302.6751 512.3136,-268.7426 543.6568,-234.81 606.3432,-234.81 637.6864,-268.7426"/>
<text text-anchor="middle" x="575" y="-272.9426" font-family="Times,serif" font-size="14.00" fill="#000000">Gary</text>
<text text-anchor="middle" x="575" y="-256.1426" font-family="Times,serif" font-size="14.00" fill="#000000">1859-1938</text>
</g>
<!-- 17&#45;&gt;16 -->
<g id="edge26" class="edge">
<title>17-&gt;16</title>
<path fill="none" stroke="#ff0000" d="M637.6027,-268.7426C660.4737,-268.7426 686.3359,-268.7426 709.2222,-268.7426"/>
<text text-anchor="middle" x="673.5" y="-275.9426" font-family="Times,serif" font-size="14.00" fill="#000000">married</text>
</g>
<!-- 18 -->
<g id="node23" class="node">
<title>18</title>
<polygon fill="#ffc0cb" stroke="#000000" points="550.3314,-142.0291 538.382,-169.7769 490,-182.1259 441.618,-169.7769 429.6686,-142.0291 463.15,-119.777 516.85,-119.777 550.3314,-142.0291"/>
<text text-anchor="middle" x="490" y="-153.5274" font-family="Times,serif" font-size="14.00" fill="#000000">Lisa</text>
<text text-anchor="middle" x="490" y="-136.7274" font-family="Times,serif" font-size="14.00" fill="#000000">1878-1955</text>
</g>
<!-- 17&#45;&gt;18 -->
<g id="edge11" class="edge">
<title>17-&gt;18</title>
<path fill="none" stroke="#000000" d="M550.6424,-234.523C539.7149,-219.1711 526.8174,-201.0517 515.7325,-185.4785"/>
<polygon fill="#000000" stroke="#000000" points="518.4351,-183.2398 509.7846,-177.1225 512.7322,-187.2991 518.4351,-183.2398"/>
</g>
<!-- 23 -->
<g id="node19" class="node">
<title>23</title>
<polygon fill="#add8e6" stroke="#000000" points="977.6864,-268.7426 946.3432,-302.6751 883.6568,-302.6751 852.3136,-268.7426 883.6568,-234.81 946.3432,-234.81 977.6864,-268.7426"/>
<text text-anchor="middle" x="915" y="-272.9426" font-family="Times,serif" font-size="14.00" fill="#000000">Ronald</text>
<text text-anchor="middle" x="915" y="-256.1426" font-family="Times,serif" font-size="14.00" fill="#000000">1850-1932</text>
</g>
<!-- 23&#45;&gt;22 -->
<g id="edge29" class="edge">
<title>23-&gt;22</title>
<path fill="none" stroke="#ff0000" d="M951.9865,-297.3582C969.5281,-309.1621 991.3968,-321.4756 1013.2342,-327.5088 1082.9738,-346.7766 1164.9536,-315.6726 1213.3003,-291.8644"/>
<text text-anchor="middle" x="1035" y="-324.9088" font-family="Times,serif" font-size="14.00" fill="#000000">married</text>
</g>
<!-- 24 -->
<g id="node25" class="node">
<title>24</title>
<polygon fill="#add8e6" stroke="#000000" points="688.3314,-142.0291 676.382,-169.7769 628,-182.1259 579.618,-169.7769 567.6686,-142.0291 601.15,-119.777 654.85,-119.777 688.3314,-142.0291"/>
<text text-anchor="middle" x="628" y="-153.5274" font-family="Times,serif" font-size="14.00" fill="#000000">Justin</text>
<text text-anchor="middle" x="628" y="-136.7274" font-family="Times,serif" font-size="14.00" fill="#000000">1894-1977</text>
</g>
<!-- 23&#45;&gt;24 -->
<g id="edge12" class="edge">
<title>23-&gt;24</title>
<path fill="none" stroke="#000000" d="M875.8671,-242.8968C865.7767,-236.9999 854.7291,-231.1811 844,-226.7763 781.6967,-201.198 759.3218,-215.5094 697,-189.9763 688.8676,-186.6445 680.5445,-182.4798 672.6206,-178.0966"/>
<polygon fill="#000000" stroke="#000000" points="674.2924,-175.0207 663.8754,-173.0877 670.8133,-181.0949 674.2924,-175.0207"/>
</g>
<!-- 25 -->
<g id="node20" class="node">
<title>25</title>
<polygon fill="#add8e6" stroke="#000000" points="1120.6864,-268.7426 1089.3432,-302.6751 1026.6568,-302.6751 995.3136,-268.7426 1026.6568,-234.81 1089.3432,-234.81 1120.6864,-268.7426"/>
<text text-anchor="middle" x="1058" y="-272.9426" font-family="Times,serif" font-size="14.00" fill="#000000">Lee</text>
<text text-anchor="middle" x="1058" y="-256.1426" font-family="Times,serif" font-size="14.00" fill="#000000">1906-1969</text>
</g>
<!-- 25&#45;&gt;22 -->
<g id="edge30" class="edge">
<title>25-&gt;22</title>
<path fill="none" stroke="#ff0000" d="M1120.6027,-268.7426C1143.4737,-268.7426 1169.3359,-268.7426 1192.2222,-268.7426"/>
<text text-anchor="middle" x="1156.5" y="-275.9426" font-family="Times,serif" font-size="14.00" fill="#000000">married</text>
</g>
<!-- 26 -->
<g id="node26" class="node">
<title>26</title>
<polygon fill="#ffc0cb" stroke="#000000" points="1102.3314,-142.0291 1090.382,-169.7769 1042,-182.1259 993.618,-169.7769 981.6686,-142.0291 1015.15,-119.777 1068.85,-119.777 1102.3314,-142.0291"/>
<text text-anchor="middle" x="1042" y="-153.5274" font-family="Times,serif" font-size="14.00" fill="#000000">Kathryn</text>
<text text-anchor="middle" x="1042" y="-136.7274" font-family="Times,serif" font-size="14.00" fill="#000000">1934-2021</text>
</g>
<!-- 25&#45;&gt;26 -->
<g id="edge13" class="edge">
<title>25-&gt;26</title>
<path fill="none" stroke="#000000" d="M1053.415,-234.523C1051.6019,-220.991 1049.5007,-205.3088 1047.599,-191.1155"/>
<polygon fill="#000000" stroke="#000000" points="1051.0536,-190.5423 1046.2565,-181.0957 1044.1156,-191.472 1051.0536,-190.5423"/>
</g>
<!-- 28 -->
<g id="node28" class="node">
<title>28</title>
<polygon fill="#add8e6" stroke="#000000" points="1240.3314,-142.0291 1228.382,-169.7769 1180,-182.1259 1131.618,-169.7769 1119.6686,-142.0291 1153.15,-119.777 1206.85,-119.777 1240.3314,-142.0291"/>
<text text-anchor="middle" x="1180" y="-153.5274" font-family="Times,serif" font-size="14.00" fill="#000000">Russell</text>
<text text-anchor="middle" x="1180" y="-136.7274" font-family="Times,serif" font-size="14.00" fill="#000000">1944-2004</text>
</g>
<!-- 25&#45;&gt;28 -->
<g id="edge14" class="edge">
<title>25-&gt;28</title>
<path fill="none" stroke="#000000" d="M1091.015,-236.4271C1107.905,-219.895 1128.4495,-199.7857 1145.5409,-183.0565"/>
<polygon fill="#000000" stroke="#000000" points="1148.427,-185.1291 1153.1251,-175.6329 1143.5305,-180.1266 1148.427,-185.1291"/>
</g>
<!-- 31 -->
<g id="node30" class="node">
<title>31</title>
<polygon fill="#add8e6" stroke="#000000" points="1378.3314,-142.0291 1366.382,-169.7769 1318,-182.1259 1269.618,-169.7769 1257.6686,-142.0291 1291.15,-119.777 1344.85,-119.777 1378.3314,-142.0291"/>
<text text-anchor="middle" x="1318" y="-153.5274" font-family="Times,serif" font-size="14.00" fill="#000000">Joshua</text>
<text text-anchor="middle" x="1318" y="-136.7274" font-family="Times,serif" font-size="14.00" fill="#000000">1948-2032</text>
</g>
<!-- 25&#45;&gt;31 -->
<g id="edge15" class="edge">
<title>25-&gt;31</title>
<path fill="none" stroke="#000000" d="M1105.1325,-251.4435C1144.2995,-236.5635 1201.1528,-213.787 1249,-189.9763 1256.515,-186.2365 1264.3232,-181.9998 1271.8682,-177.7086"/>
<polygon fill="#000000" stroke="#000000" points="1273.6689,-180.7104 1280.5712,-172.6725 1270.1629,-174.6517 1273.6689,-180.7104"/>
</g>
<!-- 19 -->
<g id="node24" class="node">
<title>19</title>
<polygon fill="#add8e6" stroke="#000000" points="274.3314,-142.0291 262.382,-169.7769 214,-182.1259 165.618,-169.7769 153.6686,-142.0291 187.15,-119.777 240.85,-119.777 274.3314,-142.0291"/>
<text text-anchor="middle" x="214" y="-153.5274" font-family="Times,serif" font-size="14.00" fill="#000000">Chad</text>
<text text-anchor="middle" x="214" y="-136.7274" font-family="Times,serif" font-size="14.00" fill="#000000">1886-1964</text>
</g>
<!-- 19&#45;&gt;18 -->
<g id="edge27" class="edge">
<title>19-&gt;18</title>
<path fill="none" stroke="#ff0000" d="M251.3221,-172.891C261.4154,-178.8249 272.4655,-184.9345 283,-189.9763 320.0807,-207.7232 333.3226,-215.1438 373.7658,-207.7763 403.0982,-202.4328 433.0847,-187.0601 455.2521,-173.4214"/>
<text text-anchor="middle" x="352" y="-204.1763" font-family="Times,serif" font-size="14.00" fill="#000000">married</text>
</g>
<!-- 20 -->
<g id="node31" class="node">
<title>20</title>
<polygon fill="#ffc0cb" stroke="#000000" points="546.8475,-34.7173 546.8475,-60.9613 512.3754,-79.5186 463.6246,-79.5186 429.1525,-60.9613 429.1525,-34.7173 463.6246,-16.1599 512.3754,-16.1599 546.8475,-34.7173"/>
<text text-anchor="middle" x="488" y="-52.0393" font-family="Times,serif" font-size="14.00" fill="#000000">Edna</text>
<text text-anchor="middle" x="488" y="-35.2393" font-family="Times,serif" font-size="14.00" fill="#000000">1911-1967</text>
</g>
<!-- 19&#45;&gt;20 -->
<g id="edge16" class="edge">
<title>19-&gt;20</title>
<path fill="none" stroke="#000000" d="M250.3666,-125.6702C260.6518,-119.6023 272.0362,-113.4494 283,-108.6785 327.0275,-89.5199 378.8934,-74.1909 419.4396,-63.7121"/>
<polygon fill="#000000" stroke="#000000" points="420.4004,-67.0792 429.2274,-61.2196 418.6729,-60.2957 420.4004,-67.0792"/>
</g>
<!-- 27 -->
<g id="node27" class="node">
<title>27</title>
<polygon fill="#add8e6" stroke="#000000" points="826.3314,-142.0291 814.382,-169.7769 766,-182.1259 717.618,-169.7769 705.6686,-142.0291 739.15,-119.777 792.85,-119.777 826.3314,-142.0291"/>
<text text-anchor="middle" x="766" y="-153.5274" font-family="Times,serif" font-size="14.00" fill="#000000">Justin</text>
<text text-anchor="middle" x="766" y="-136.7274" font-family="Times,serif" font-size="14.00" fill="#000000">1947-2032</text>
</g>
<!-- 27&#45;&gt;26 -->
<g id="edge31" class="edge">
<title>27-&gt;26</title>
<path fill="none" stroke="#ff0000" d="M803.3221,-172.891C813.4154,-178.8249 824.4655,-184.9345 835,-189.9763 872.0807,-207.7232 885.3226,-215.1438 925.7658,-207.7763 955.0982,-202.4328 985.0847,-187.0601 1007.2521,-173.4214"/>
<text text-anchor="middle" x="904" y="-204.1763" font-family="Times,serif" font-size="14.00" fill="#000000">married</text>
</g>
<!-- 29 -->
<g id="node29" class="node">
<title>29</title>
<polygon fill="#ffc0cb" stroke="#000000" points="964.3314,-142.0291 952.382,-169.7769 904,-182.1259 855.618,-169.7769 843.6686,-142.0291 877.15,-119.777 930.85,-119.777 964.3314,-142.0291"/>
<text text-anchor="middle" x="904" y="-153.5274" font-family="Times,serif" font-size="14.00" fill="#000000">Joanne</text>
<text text-anchor="middle" x="904" y="-136.7274" font-family="Times,serif" font-size="14.00" fill="#000000">1960-2023</text>
</g>
<!-- 29&#45;&gt;28 -->
<g id="edge32" class="edge">
<title>29-&gt;28</title>
<path fill="none" stroke="#ff0000" d="M934.9585,-174.4021C952.6452,-187.0964 975.8977,-201.1862 999.2342,-207.7763 1050.4964,-222.2526 1109.022,-195.2022 1145.245,-173.2588"/>
<text text-anchor="middle" x="1021" y="-204.1763" font-family="Times,serif" font-size="14.00" fill="#000000">married</text>
</g>
<!-- 30 -->
<g id="node33" class="node">
<title>30</title>
<polygon fill="#ffc0cb" stroke="#000000" points="870.8475,-34.7173 870.8475,-60.9613 836.3754,-79.5186 787.6246,-79.5186 753.1525,-60.9613 753.1525,-34.7173 787.6246,-16.1599 836.3754,-16.1599 870.8475,-34.7173"/>
<text text-anchor="middle" x="812" y="-52.0393" font-family="Times,serif" font-size="14.00" fill="#000000">Judith</text>
<text text-anchor="middle" x="812" y="-35.2393" font-family="Times,serif" font-size="14.00" fill="#000000">2002-2077</text>
</g>
<!-- 29&#45;&gt;30 -->
<g id="edge17" class="edge">
<title>29-&gt;30</title>
<path fill="none" stroke="#000000" d="M877.1425,-119.7C867.4897,-109.0517 856.4682,-96.8935 846.2707,-85.6444"/>
<polygon fill="#000000" stroke="#000000" points="848.6789,-83.0897 839.3695,-78.0314 843.4926,-87.7911 848.6789,-83.0897"/>
</g>
<!-- 21 -->
<g id="node32" class="node">
<title>21</title>
<polygon fill="#add8e6" stroke="#000000" points="735.8475,-34.7173 735.8475,-60.9613 701.3754,-79.5186 652.6246,-79.5186 618.1525,-60.9613 618.1525,-34.7173 652.6246,-16.1599 701.3754,-16.1599 735.8475,-34.7173"/>
<text text-anchor="middle" x="677" y="-52.0393" font-family="Times,serif" font-size="14.00" fill="#000000">Kenneth</text>
<text text-anchor="middle" x="677" y="-35.2393" font-family="Times,serif" font-size="14.00" fill="#000000">1915-1999</text>
</g>
<!-- 21&#45;&gt;20 -->
<g id="edge28" class="edge">
<title>21-&gt;20</title>
<path fill="none" stroke="#ff0000" d="M618.2716,-47.8393C595.519,-47.8393 569.5208,-47.8393 546.7648,-47.8393"/>
<text text-anchor="middle" x="582.5" y="-55.0393" font-family="Times,serif" font-size="14.00" fill="#000000">married</text>
</g>
</g>
</svg>
